<?xml version="1.0" encoding="UTF-8" standalone="no"?>
<svg xmlns="http://www.w3.org/2000/svg" version="1.2" baseProfile="tiny" viewBox="0.00 0.00 500.00 500.00">
<g stroke-width="2.00" fill="none" stroke-linecap="butt">
<path stroke="#b9b9b9" vector-effect="non-scaling-stroke" d="
  M 322.92 14.62
  C 175.12 -31.93 23.66 69.65 4.89 221.59
  A 0.37 0.36 -86.5 0 0 5.25 222.00
  L 126.97 222.00
  Q 127.41 222.00 127.51 221.57
  C 142.72 156.37 201.22 114.09 268.02 121.72
  C 322.51 127.94 366.70 167.46 378.31 221.46
  Q 378.42 222.00 378.98 222.00
  L 494.51 222.00
  Q 495.10 222.00 495.03 221.42
  C 483.44 124.30 415.65 43.82 322.92 14.62"
/>
<path stroke="#b9b9b9" vector-effect="non-scaling-stroke" d="
  M 245.83 202.78
  C 219.21 206.41 198.78 234.73 207.10 261.18
  C 221.79 307.88 284.94 306.63 297.34 258.93
  C 305.42 227.86 276.35 198.62 245.83 202.78"
/>
<path stroke="#b9b9b9" vector-effect="non-scaling-stroke" d="
  M 161.56 339.44
  Q 136.72 314.83 128.16 278.51
  A 0.66 0.66 0.0 0 0 127.52 278.00
  L 5.51 278.00
  Q 4.64 278.00 4.76 278.86
  Q 14.87 351.08 59.38 406.03
  C 111.13 469.93 196.33 505.35 278.18 495.15
  C 391.96 480.98 480.88 392.59 495.12 278.43
  A 0.38 0.37 -86.0 0 0 494.75 278.00
  L 378.70 278.00
  Q 378.10 278.00 377.94 278.58
  C 376.84 282.73 375.68 287.41 374.44 290.97
  C 342.86 381.35 228.67 405.91 161.56 339.44"
/>
</g>
<path fill="#7e7e7e" d="
  M 239.34 0.00
  L 261.04 0.00
  C 385.77 6.87 485.29 100.28 498.78 224.39
  A 0.55 0.54 86.7 0 1 498.24 225.00
  L 376.27 225.00
  A 0.70 0.70 0.0 0 1 375.59 224.45
  Q 368.07 191.67 347.56 167.55
  C 321.83 137.27 280.97 120.70 241.29 124.71
  C 187.53 130.15 144.19 167.96 131.41 220.68
  C 131.23 221.45 131.09 223.31 130.70 224.41
  A 0.88 0.87 9.3 0 1 129.87 225.00
  L 1.75 225.00
  Q 1.17 225.00 1.23 224.43
  C 14.94 99.53 114.44 7.04 239.34 0.00
  Z
  M 322.92 14.62
  C 175.12 -31.93 23.66 69.65 4.89 221.59
  A 0.37 0.36 -86.5 0 0 5.25 222.00
  L 126.97 222.00
  Q 127.41 222.00 127.51 221.57
  C 142.72 156.37 201.22 114.09 268.02 121.72
  C 322.51 127.94 366.70 167.46 378.31 221.46
  Q 378.42 222.00 378.98 222.00
  L 494.51 222.00
  Q 495.10 222.00 495.03 221.42
  C 483.44 124.30 415.65 43.82 322.92 14.62
  Z"
/>
<path fill="#f4f4f4" d="
  M 4.89 221.59
  C 23.66 69.65 175.12 -31.93 322.92 14.62
  C 415.65 43.82 483.44 124.30 495.03 221.42
  Q 495.10 222.00 494.51 222.00
  L 378.98 222.00
  Q 378.42 222.00 378.31 221.46
  C 366.70 167.46 322.51 127.94 268.02 121.72
  C 201.22 114.09 142.72 156.37 127.51 221.57
  Q 127.41 222.00 126.97 222.00
  L 5.25 222.00
  A 0.37 0.36 -86.5 0 1 4.89 221.59
  Z"
/>
<path fill="#7e7e7e" d="
  M 302.13 249.00
  A 50.12 50.12 0.0 0 1 252.01 299.12
  A 50.12 50.12 0.0 0 1 201.89 249.00
  A 50.12 50.12 0.0 0 1 252.01 198.88
  A 50.12 50.12 0.0 0 1 302.13 249.00
  Z
  M 245.83 202.78
  C 219.21 206.41 198.78 234.73 207.10 261.18
  C 221.79 307.88 284.94 306.63 297.34 258.93
  C 305.42 227.86 276.35 198.62 245.83 202.78
  Z"
/>
<path fill="#f4f4f4" d="
  M 245.83 202.78
  C 276.35 198.62 305.42 227.86 297.34 258.93
  C 284.94 306.63 221.79 307.88 207.10 261.18
  C 198.78 234.73 219.21 206.41 245.83 202.78
  Z"
/>
<path fill="#7e7e7e" d="
  M 260.67 500.00
  L 239.71 500.00
  C 114.94 493.73 14.64 400.00 1.31 275.51
  A 0.46 0.46 0.0 0 1 1.77 275.00
  L 130.23 275.00
  Q 130.72 275.00 130.85 275.47
  Q 132.55 281.50 134.48 287.41
  C 161.06 368.76 259.81 400.69 328.38 348.44
  Q 359.88 324.44 372.05 285.69
  Q 373.65 280.60 375.11 275.48
  Q 375.25 275.00 375.75 275.00
  L 498.50 275.00
  A 0.43 0.42 -86.4 0 1 498.92 275.48
  C 484.03 400.48 386.59 492.99 260.67 500.00
  Z
  M 161.56 339.44
  Q 136.72 314.83 128.16 278.51
  A 0.66 0.66 0.0 0 0 127.52 278.00
  L 5.51 278.00
  Q 4.64 278.00 4.76 278.86
  Q 14.87 351.08 59.38 406.03
  C 111.13 469.93 196.33 505.35 278.18 495.15
  C 391.96 480.98 480.88 392.59 495.12 278.43
  A 0.38 0.37 -86.0 0 0 494.75 278.00
  L 378.70 278.00
  Q 378.10 278.00 377.94 278.58
  C 376.84 282.73 375.68 287.41 374.44 290.97
  C 342.86 381.35 228.67 405.91 161.56 339.44
  Z"
/>
<path fill="#f4f4f4" d="
  M 161.56 339.44
  C 228.67 405.91 342.86 381.35 374.44 290.97
  C 375.68 287.41 376.84 282.73 377.94 278.58
  Q 378.10 278.00 378.70 278.00
  L 494.75 278.00
  A 0.38 0.37 -86.0 0 1 495.12 278.43
  C 480.88 392.59 391.96 480.98 278.18 495.15
  C 196.33 505.35 111.13 469.93 59.38 406.03
  Q 14.87 351.08 4.76 278.86
  Q 4.64 278.00 5.51 278.00
  L 127.52 278.00
  A 0.66 0.66 0.0 0 1 128.16 278.51
  Q 136.72 314.83 161.56 339.44
  Z"
/>
</svg>
